<?xml version="1.0" encoding="UTF-8"?>
<svg width="67px" height="65px" viewBox="0 0 67 65" version="1.1" xmlns="http://www.w3.org/2000/svg" xmlns:xlink="http://www.w3.org/1999/xlink">
    <!-- Generator: Sketch 43.1 (39012) - http://www.bohemiancoding.com/sketch -->
    <title>Group 2</title>
    <desc>Created with Sketch.</desc>
    <defs></defs>
    <g id="Page-1" stroke="none" stroke-width="1" fill="none" fill-rule="evenodd">
        <g id="materialize" transform="translate(-388.000000, -6.000000)">
            <g id="Group-2" transform="translate(388.000000, 0.000000)">
                <path d="M28.5560044,16.8028981 C28.5560044,16.8028981 28.7344361,16.678725 28.7344361,16.678725 C42.1245358,9.33700735 62.8149464,6.50396197 65.6853388,15.5729499 C65.6853388,15.5729499 72.9317325,29.2014343 72.9317325,29.2014343 C70.3735444,21.0801579 42.3139446,22.3888114 29.8281792,31.0323088 C28.275291,23.5585255 27.4506914,17.7729506 28.5560044,16.8028981 Z" id="Rectangle-2" fill="#7B939E" transform="translate(50.490054, 20.458519) rotate(-332.000000) translate(-50.490054, -20.458519) "></path>
                <path d="M12.6755706,21.6395985 C13.5089823,19.3716298 20.790469,8.43130632 32.9753898,7 C27.639194,7.75258262 21.8785147,60.6322241 16.4447658,63.4840477 C15.7347071,63.4840477 16.4849449,63.4840477 15.7344891,63.4840477 C7.90489174,63.4840477 0.0752944048,63.4840477 0.0752944048,63.4840477 C4.37298302,63.4840477 11.5205791,23.7099639 12.6755706,21.6395985 Z" id="Rectangle" fill="#234B5D"></path>
                <path d="M25.1790655,35.3739349 C25.6699653,35.0514506 26.0238665,35.4053518 26.0238665,35.4053518 C37.7431417,45.7460359 58.2634384,53.2460638 78.4729526,44.5396519 C78.4729526,44.5396519 66.8061842,55.7978425 67.2496358,55.7629687 C51.604954,66.7690636 34.8551945,60.8087587 16.0705911,47.1245613 C15.6168473,46.7940182 14.8930483,45.9703322 13.6105862,46.9424142 C13.6105862,46.9424142 25.1790655,35.3739349 25.1790655,35.3739349 Z" id="Rectangle-2" fill="#234B5D" transform="translate(46.041769, 48.361282) rotate(-405.000000) translate(-46.041769, -48.361282) "></path>
            </g>
        </g>
    </g>
</svg>