<?xml version="1.0" encoding="UTF-8"?>
<svg width="69px" height="57px" viewBox="0 0 69 57" version="1.1" xmlns="http://www.w3.org/2000/svg" xmlns:xlink="http://www.w3.org/1999/xlink">
    <!-- Generator: Sketch 43.1 (39012) - http://www.bohemiancoding.com/sketch -->
    <title>materialize</title>
    <desc>Created with Sketch.</desc>
    <defs>
        <path d="M0.9,56.4 L0.9,28.2 L0.9,0 L913.5,0 L913.5,28.2 L913.5,56.4 L0.9,56.4 Z" id="path-1"></path>
    </defs>
    <g id="Page-1" stroke="none" stroke-width="1" fill="none" fill-rule="evenodd">
        <g id="materialize" transform="translate(-387.000000, 0.000000)">
            <g id="Group">
                <g id="Clipped">
                    <mask id="mask-2" fill="white">
                        <use xlink:href="#path-1"></use>
                    </mask>
                    <g id="SVGID_7_"></g>
                    <g id="XMLID_1_" mask="url(#mask-2)">
                        <g transform="translate(387.000000, 0.000000)" id="Group">
                            <g>
                                <path d="M53.3,0.1 L68.7,0.1 C66.1,0.1 63.4,11.3 61,24.3 C58.7,12.1 56,0.1 53.3,0.1 Z" id="Shape" fill="#234B5D" fill-rule="nonzero"></path>
                                <path d="M61,24.3 C60.8,25.6 60.5,26.9 60.3,28.3 C56.6,48.5 54.4,55.9 51.8,56.5 C48.9,56.5 46.1,43.4 43.8,30.6 C43.8,30.4 43.7,30.2 43.7,30 C43.8,29.4 43.9,28.9 44,28.3 C47.7,8 49.9,0.7 52.4,0.1 L53.3,0.1 C56,0.1 58.7,12.1 61,24.3 Z" id="Shape" fill="#234B5D" fill-rule="nonzero"></path>
                                <path d="M51.8,56.4 L35.5,56.4 C38.3,56.4 41.1,43.9 43.6,29.9 C43.6,30.1 43.7,30.3 43.7,30.5 C46.1,43.4 49,56.4 51.8,56.4 Z" id="Shape" fill="#234B5D" fill-rule="nonzero"></path>
                                <path d="M43.7,30 C41.1,44 38.3,56.5 35.6,56.5 C32.4,55.7 30,43.9 26.6,26 C26.5,25.4 26.4,24.9 26.3,24.3 C28.8,11.3 31.4,0.1 34,0.1 L34.9,0.1 C38,0.8 40.4,12.4 43.7,30 Z" id="Shape" fill="#7B939E" fill-rule="nonzero"></path>
                                <path d="M18.6,0.1 L34,0.1 C31.4,0.1 28.8,11.3 26.3,24.3 C24,12.1 21.3,0.1 18.6,0.1 Z" id="Shape" fill="#234B5D" fill-rule="nonzero"></path>
                                <path d="M26.3,24.3 C26.1,25.6 25.8,26.9 25.6,28.3 C21.9,48.5 19.7,55.9 17.1,56.5 C14.2,56.5 15.3,56 13.5,47.9 C11.7,39.8 10.3,35 8.4,32.5 C8.7,31.1 8.9,29.7 9.2,28.3 C13,8 15.2,0.7 17.7,0.1 L18.6,0.1 C21.3,0.1 24,12.1 26.3,24.3 Z" id="Shape" fill="#234B5D" fill-rule="nonzero"></path>
                                <path d="M17.1,56.4 L0.8,56.4 C3.4,56.4 6,45.3 8.5,32.4 C10.3,34.9 11.7,39.7 13.6,47.8 C15.4,55.9 14.2,56.4 17.1,56.4 Z" id="Shape" fill="#234B5D" fill-rule="nonzero"></path>
                            </g>
                        </g>
                    </g>
                </g>
            </g>
            <g id="Group" fill-rule="nonzero">
                <g id="Clipped" transform="translate(387.000000, 0.000000)">
                    <g id="XMLID_2_">
                        <g id="Group">
                            <path d="M53.3,0 L68.7,0 C66.1,0 63.4,11.2 61,24.2 C58.7,12 56,0 53.3,0 Z" id="Shape" fill="#234B5D"></path>
                            <path d="M61,24.2 C60.8,25.5 60.5,26.8 60.3,28.2 C56.6,48.4 54.4,55.8 51.8,56.4 C48.9,56.4 46.1,43.3 43.8,30.5 C43.8,30.3 43.7,30.1 43.7,29.9 C43.8,29.3 43.9,28.8 44,28.2 C47.7,7.9 49.9,0.6 52.4,0 L53.3,0 C56,0 58.7,12 61,24.2 Z" id="Shape" fill="#234B5D"></path>
                            <path d="M51.8,56.3 L35.5,56.3 C38.3,56.3 41.1,43.8 43.6,29.8 C43.6,30 43.7,30.2 43.7,30.4 C46.1,43.3 49,56.3 51.8,56.3 Z" id="Shape" fill="#234B5D"></path>
                            <path d="M43.7,29.9 C41.1,43.9 38.3,56.4 35.6,56.4 C32.5,55.7 30,43.9 26.7,25.9 C26.6,25.3 26.5,24.8 26.4,24.2 C28.8,11.2 31.4,0 34,0 L34.9,0 C38,0.7 40.4,12.2 43.7,29.9 Z" id="Shape" fill="#7B939E"></path>
                            <path d="M18.6,0 L34,0 C31.4,0 28.8,11.2 26.3,24.2 C24,12 21.3,0 18.6,0 Z" id="Shape" fill="#234B5D"></path>
                            <path d="M26.3,24.2 C26.1,25.5 25.8,26.8 25.6,28.2 C21.9,48.4 19.7,55.8 17.1,56.4 C14.2,56.4 15.3,55.9 13.5,47.8 C11.7,39.7 10.3,34.9 8.4,32.4 C8.7,31 8.9,29.6 9.2,28.2 C13,7.9 15.2,0.6 17.7,0 L18.6,0 C21.3,0 24,12 26.3,24.2 Z" id="Shape" fill="#234B5D"></path>
                            <path d="M17.1,56.3 L0.8,56.3 C3.4,56.3 6,45.2 8.5,32.3 C10.3,34.8 11.7,39.6 13.6,47.7 C15.4,55.8 14.2,56.3 17.1,56.3 Z" id="Shape" fill="#234B5D"></path>
                        </g>
                    </g>
                </g>
            </g>
        </g>
    </g>
</svg>